<svg width="103" height="98" viewBox="0 0 103 98" fill="none" xmlns="http://www.w3.org/2000/svg">
<path d="M51.7562 8.1687C28.2858 8.1687 9.26038 26.3263 9.26038 48.7262C9.26038 71.1261 28.2858 89.2837 51.7562 89.2837C75.2266 89.2837 94.252 71.1261 94.252 48.7262C94.252 26.3263 75.2266 8.1687 51.7562 8.1687ZM51.7562 28.4475C54.102 28.4475 56.0058 30.2644 56.0058 32.5032C56.0058 34.742 54.102 36.559 51.7562 36.559C49.4104 36.559 47.5066 34.742 47.5066 32.5032C47.5066 30.2644 49.4104 28.4475 51.7562 28.4475ZM47.5066 40.6147C48.195 40.6147 51.2207 40.6147 51.7562 40.6147C54.4377 40.6147 56.401 42.9224 55.874 45.4329L52.6868 60.8935H56.0058C58.3515 60.8935 60.2554 62.7104 60.2554 64.9492C60.2554 67.188 58.3515 69.005 56.0058 69.005H51.7562C46.7289 69.005 43.2018 64.8398 44.1877 60.131L46.7077 48.4747C44.7827 48.0854 43.257 46.6253 43.257 44.6705C43.257 42.4317 45.1608 40.6147 47.5066 40.6147Z" fill="#F1FAEE"/>
</svg>
