<svg width="102" height="98" viewBox="0 0 102 98" fill="none" xmlns="http://www.w3.org/2000/svg">
<path d="M12.9645 38.3774C10.2006 39.4846 8.48502 41.4556 8.45909 44.246C8.44125 46.1968 9.82065 48.8169 12.5846 49.8876C13.723 50.3297 29.7078 52.3819 29.7078 52.3819C29.7078 52.3819 33.9387 65.1452 35.4635 69.6309C35.905 70.9287 36.1566 71.5655 37.1255 72.4132C38.7692 73.8489 41.548 73.3988 42.7498 72.2469C45.9293 69.2051 50.9549 64.5126 50.9549 64.5126L53.0699 66.1551C53.0699 66.1551 62.4619 73.3054 67.5958 76.6716C70.6186 78.6549 72.7166 80.7234 76.1188 80.7356C77.8518 80.7437 80.6314 79.9203 82.469 77.9127C83.6831 76.5865 84.462 74.4653 84.7633 72.5632C85.4483 68.2438 93.4847 21.5379 93.4507 19.9035C93.3963 17.2956 91.0977 15.8274 89.1871 15.8436C87.987 15.8558 86.9981 16.1884 84.7977 16.8292C67.7764 21.7894 14.0919 37.9272 12.9645 38.3774ZM76.4524 28.0109C76.4524 28.0109 54.0231 46.643 45.0603 55.2168C42.1889 57.9626 41.9862 62.6753 41.9862 62.6753L37.3533 48.5288L76.4524 28.0109Z" fill="#F1FAEE"/>
</svg>
