<svg width="102" height="98" viewBox="0 0 102 98" fill="none" xmlns="http://www.w3.org/2000/svg">
<path d="M50.9548 8.10706C27.4844 8.10706 8.45898 26.2646 8.45898 48.6645C8.45898 53.8234 9.57235 59.0512 11.5144 63.7478L14.8334 70.2086C16.9369 74.382 16.1975 78.316 13.3715 83.1383C11.8119 85.807 13.7582 89.0232 16.9581 89.0962C21.28 89.1895 28.1941 87.4942 33.693 85.5474C38.7628 87.7821 45.2944 89.2219 50.9548 89.2219C74.4252 89.2219 93.4506 71.0644 93.4506 48.6645C93.4506 26.2646 74.4252 8.10706 50.9548 8.10706ZM33.9565 44.6087C36.3022 44.6087 38.2061 46.4257 38.2061 48.6645C38.2061 50.9033 36.3022 52.7202 33.9565 52.7202C31.6107 52.7202 29.7069 50.9033 29.7069 48.6645C29.7069 46.4257 31.6107 44.6087 33.9565 44.6087ZM50.9548 44.6087C53.3006 44.6087 55.2044 46.4257 55.2044 48.6645C55.2044 50.9033 53.3006 52.7202 50.9548 52.7202C48.609 52.7202 46.7052 50.9033 46.7052 48.6645C46.7052 46.4257 48.609 44.6087 50.9548 44.6087ZM67.9531 44.6087C70.2989 44.6087 72.2027 46.4257 72.2027 48.6645C72.2027 50.9033 70.2989 52.7202 67.9531 52.7202C65.6074 52.7202 63.7035 50.9033 63.7035 48.6645C63.7035 46.4257 65.6074 44.6087 67.9531 44.6087Z" fill="#F1FAEE"/>
</svg>
