<svg width="102" height="98" viewBox="0 0 102 98" fill="none" xmlns="http://www.w3.org/2000/svg">
<path d="M25.9227 12.3746C18.8811 12.3746 13.1739 17.8218 13.1739 24.5418V32.6533V69.1549C13.1739 78.1141 20.7849 85.3779 30.1722 85.3779H72.6681C82.0555 85.3779 89.6665 78.1141 89.6665 69.1549V32.6533C89.6665 30.4133 87.7627 28.5975 85.4169 28.5975C85.4169 28.5975 73.0804 28.5975 64.169 28.5975C60.9605 28.5975 59.9279 27.6043 57.3951 22.7674C53.5578 15.4371 50.3365 12.3746 42.921 12.3746H25.9227ZM25.9227 20.4861H42.921C46.1295 20.4861 47.1621 21.4793 49.6948 26.3162C50.2473 27.3751 50.4598 27.7199 51.0038 28.6044C36.3597 28.6044 25.8589 28.5975 21.6731 28.5975V24.5418C21.6731 22.3018 23.5769 20.4861 25.9227 20.4861Z" fill="#F1FAEE"/>
</svg>
