<svg width="105" height="105" viewBox="0 0 105 105" fill="none" xmlns="http://www.w3.org/2000/svg">
<g clip-path="url(#clip0_201_17)">
<path d="M52.5 14C30.6849 14 13 31.6849 13 53.5C13 72.0239 25.7538 87.568 42.9584 91.8371V65.5712H34.8135V53.5H42.9584V48.2986C42.9584 34.8544 49.043 28.6229 62.2423 28.6229C64.745 28.6229 69.0631 29.1143 70.8296 29.6041V40.5456C69.8974 40.4476 68.2779 40.3986 66.2665 40.3986C59.7901 40.3986 57.2874 42.8524 57.2874 49.2308V53.5H70.1897L67.9729 65.5712H57.2874V92.7109C76.8462 90.3488 92.0016 73.6956 92.0016 53.5C92 31.6849 74.3151 14 52.5 14Z" fill="#457B9D"/>
</g>
<defs>
<clipPath id="clip0_201_17">
<rect width="79" height="79" fill="white" transform="translate(13 14)"/>
</clipPath>
</defs>
</svg>
