<svg width="105" height="105" viewBox="0 0 105 105" fill="none" xmlns="http://www.w3.org/2000/svg">
<g clip-path="url(#clip0_201_18)">
<path d="M52.5 21.1131C63.0539 21.1131 64.3037 21.1594 68.4543 21.3445C72.3117 21.5143 74.3947 22.1623 75.7834 22.7023C77.6195 23.4121 78.9465 24.2762 80.3197 25.6494C81.7084 27.0381 82.557 28.3496 83.2668 30.1857C83.8068 31.5744 84.4549 33.6728 84.6246 37.5148C84.8098 41.6809 84.8561 42.9307 84.8561 53.4691C84.8561 64.023 84.8098 65.2729 84.6246 69.4234C84.4549 73.2809 83.8068 75.3639 83.2668 76.7525C82.557 78.5887 81.693 79.9156 80.3197 81.2889C78.9311 82.6775 77.6195 83.5262 75.7834 84.2359C74.3947 84.776 72.2963 85.424 68.4543 85.5937C64.2883 85.7789 63.0385 85.8252 52.5 85.8252C41.9461 85.8252 40.6963 85.7789 36.5457 85.5937C32.6883 85.424 30.6053 84.776 29.2166 84.2359C27.3805 83.5262 26.0535 82.6621 24.6803 81.2889C23.2916 79.9002 22.443 78.5887 21.7332 76.7525C21.1932 75.3639 20.5451 73.2654 20.3754 69.4234C20.1902 65.2574 20.1439 64.0076 20.1439 53.4691C20.1439 42.9152 20.1902 41.6654 20.3754 37.5148C20.5451 33.6574 21.1932 31.5744 21.7332 30.1857C22.443 28.3496 23.307 27.0227 24.6803 25.6494C26.0689 24.2607 27.3805 23.4121 29.2166 22.7023C30.6053 22.1623 32.7037 21.5143 36.5457 21.3445C40.6963 21.1594 41.9461 21.1131 52.5 21.1131ZM52.5 14C41.7764 14 40.434 14.0463 36.2217 14.2314C32.0248 14.4166 29.1395 15.0955 26.6398 16.0676C24.0322 17.0859 21.8258 18.4283 19.6348 20.6348C17.4283 22.8258 16.0859 25.0322 15.0676 27.6244C14.0955 30.1395 13.4166 33.0094 13.2314 37.2062C13.0463 41.434 13 42.7764 13 53.5C13 64.2236 13.0463 65.566 13.2314 69.7783C13.4166 73.9752 14.0955 76.8605 15.0676 79.3602C16.0859 81.9678 17.4283 84.1742 19.6348 86.3652C21.8258 88.5562 24.0322 89.9141 26.6244 90.917C29.1395 91.8891 32.0094 92.568 36.2062 92.7531C40.4186 92.9383 41.7609 92.9846 52.4846 92.9846C63.2082 92.9846 64.5506 92.9383 68.7629 92.7531C72.9598 92.568 75.8451 91.8891 78.3447 90.917C80.9369 89.9141 83.1434 88.5562 85.3344 86.3652C87.5254 84.1742 88.8832 81.9678 89.8861 79.3756C90.8582 76.8605 91.5371 73.9906 91.7223 69.7937C91.9074 65.5814 91.9537 64.2391 91.9537 53.5154C91.9537 42.7918 91.9074 41.4494 91.7223 37.2371C91.5371 33.0402 90.8582 30.1549 89.8861 27.6553C88.9141 25.0322 87.5717 22.8258 85.3652 20.6348C83.1742 18.4437 80.9678 17.0859 78.3756 16.083C75.8605 15.1109 72.9906 14.432 68.7937 14.2469C64.566 14.0463 63.2236 14 52.5 14Z" fill="#457B9D"/>
<path d="M52.5 33.21C41.298 33.21 32.21 42.298 32.21 53.5C32.21 64.702 41.298 73.79 52.5 73.79C63.702 73.79 72.79 64.702 72.79 53.5C72.79 42.298 63.702 33.21 52.5 33.21ZM52.5 66.6615C45.2326 66.6615 39.3385 60.7674 39.3385 53.5C39.3385 46.2326 45.2326 40.3385 52.5 40.3385C59.7674 40.3385 65.6615 46.2326 65.6615 53.5C65.6615 60.7674 59.7674 66.6615 52.5 66.6615Z" fill="#457B9D"/>
<path d="M78.3293 32.4075C78.3293 35.0305 76.2 37.1444 73.5924 37.1444C70.9693 37.1444 68.8555 35.0151 68.8555 32.4075C68.8555 29.7844 70.9848 27.6706 73.5924 27.6706C76.2 27.6706 78.3293 29.7999 78.3293 32.4075Z" fill="#457B9D"/>
</g>
<defs>
<clipPath id="clip0_201_18">
<rect width="79" height="79" fill="white" transform="translate(13 14)"/>
</clipPath>
</defs>
</svg>
