<svg width="105" height="105" viewBox="0 0 105 105" fill="none" xmlns="http://www.w3.org/2000/svg">
<path d="M90.243 37.8001C90.243 37.8001 89.5008 32.5603 87.2148 30.2595C84.3203 27.2314 81.0844 27.2165 79.6 27.0384C68.9719 26.2665 53.0148 26.2665 53.0148 26.2665H52.9852C52.9852 26.2665 37.0281 26.2665 26.4 27.0384C24.9156 27.2165 21.6797 27.2314 18.7852 30.2595C16.4992 32.5603 15.7719 37.8001 15.7719 37.8001C15.7719 37.8001 15 43.9603 15 50.1056V55.865C15 62.0103 15.757 68.1704 15.757 68.1704C15.757 68.1704 16.4992 73.4103 18.7703 75.7111C21.6648 78.7392 25.4648 78.6353 27.157 78.9619C33.243 79.5408 53 79.7189 53 79.7189C53 79.7189 68.9719 79.6892 79.6 78.9322C81.0844 78.754 84.3203 78.7392 87.2148 75.7111C89.5008 73.4103 90.243 68.1704 90.243 68.1704C90.243 68.1704 91 62.0251 91 55.865V50.1056C91 43.9603 90.243 37.8001 90.243 37.8001ZM45.1477 62.8564V41.4962L65.6766 52.2134L45.1477 62.8564Z" fill="#457B9D"/>
</svg>
